<?xml version="1.0" standalone="no"?>
<!DOCTYPE svg PUBLIC "-//W3C//DTD SVG 20010904//EN"
 "http://www.w3.org/TR/2001/REC-SVG-20010904/DTD/svg10.dtd">
<svg version="1.0" xmlns="http://www.w3.org/2000/svg"
 width="323.000000pt" height="257.000000pt" viewBox="0 0 323.000000 257.000000"
 preserveAspectRatio="xMidYMid meet">

<g transform="translate(0.000000,257.000000) scale(0.100000,-0.100000)"
fill="#000000" stroke="none">
<path d="M720 2185 c-82 -20 -96 -42 -105 -162 -9 -114 6 -401 31 -590 17
-132 17 -133 -10 -463 -16 -181 -27 -363 -24 -403 6 -132 65 -184 258 -227 84
-19 146 -23 545 -31 485 -11 704 -7 885 17 188 24 208 43 189 183 -6 43 -7
145 -3 236 7 187 -1 231 -71 412 -25 63 -45 123 -45 134 0 11 11 36 24 57 25
37 63 183 87 337 17 105 17 388 1 437 -18 52 -49 68 -127 68 -96 0 -397 -29
-488 -46 l-78 -15 -46 30 c-63 42 -112 42 -147 1 l-25 -30 -33 20 c-40 24
-108 26 -246 6 -53 -8 -168 -16 -255 -17 -156 -3 -157 -3 -185 23 -36 33 -65
39 -132 23z m105 -35 c18 -19 17 -20 -2 -20 -11 0 -33 -10 -48 -22 -29 -22
-30 -36 -9 -159 4 -27 -3 -63 -31 -144 -28 -81 -40 -138 -50 -229 -9 -94 -13
-113 -18 -86 -25 126 -36 560 -16 618 18 53 138 82 174 42z m873 5 c55 -29 56
-30 38 -57 -9 -14 -14 -33 -10 -42 9 -23 57 -46 96 -46 30 0 38 -6 75 -62 76
-117 87 -146 87 -223 0 -79 -15 -118 -72 -177 l-35 -37 -18 38 c-21 47 -26 51
-77 53 l-39 1 5 72 c5 85 -6 125 -54 195 -19 28 -47 85 -63 128 -15 42 -31 85
-35 94 -6 13 1 26 22 48 35 34 42 36 80 15z m740 -8 c22 -23 31 -89 32 -232 0
-184 -56 -505 -95 -544 -13 -14 -15 2 -15 129 0 182 -14 307 -43 379 -18 45
-30 60 -62 77 -42 23 -242 70 -337 79 -49 6 -60 11 -82 40 l-25 33 22 6 c20 5
146 20 392 45 111 12 194 7 213 -12z m-910 -23 c12 -8 22 -18 22 -23 0 -12
-114 -170 -159 -221 l-40 -45 -1 53 c0 104 -40 152 -125 152 -67 -1 -124 -28
-194 -95 l-59 -56 -23 68 c-12 37 -30 87 -40 111 l-18 42 141 0 c77 0 184 7
237 15 172 26 216 26 259 -1z m-654 -42 c8 -15 30 -72 49 -127 32 -91 33 -103
20 -120 -26 -34 -103 -198 -118 -250 -24 -85 -38 -204 -42 -362 -2 -84 -8
-153 -13 -153 -12 0 -44 89 -64 177 -15 66 -15 87 -1 254 12 144 21 196 42
253 45 123 52 172 35 244 -13 58 -12 65 3 82 9 10 27 21 39 23 11 2 24 5 28 6
4 0 14 -11 22 -27z m928 -9 c30 -27 23 -44 -12 -31 -33 11 -44 23 -35 38 9 15
26 12 47 -7z m-217 -20 c4 -10 18 -48 30 -85 13 -37 39 -88 58 -113 53 -68 67
-149 41 -236 -4 -13 -23 -18 -87 -24 -45 -3 -117 -13 -161 -21 -116 -21 -118
-21 -114 22 3 35 5 36 78 60 78 26 130 57 117 70 -4 4 -27 -2 -51 -14 -34 -17
-128 -51 -143 -52 -2 0 -3 30 -3 66 0 65 1 67 50 122 27 30 75 93 107 138 32
46 61 83 64 84 4 0 10 -8 14 -17z m-288 -68 c20 -22 23 -37 23 -108 l0 -82
-52 -41 c-62 -48 -115 -69 -151 -60 -35 8 -80 56 -107 111 -25 52 -21 63 47
131 85 83 192 105 240 49z m778 -2 c229 -48 245 -72 251 -383 l4 -185 -25 108
c-30 137 -48 189 -85 254 -74 129 -181 96 -164 -50 7 -63 -14 -212 -59 -422
l-33 -150 -30 0 -29 0 -6 125 c-3 69 -10 142 -14 163 -7 36 -5 40 33 73 23 19
53 59 67 89 24 48 27 64 23 132 -3 80 -20 120 -99 241 l-22 34 59 -7 c32 -4
91 -14 129 -22z m83 -169 c52 -36 90 -143 137 -383 l27 -133 -38 -32 c-96 -80
-176 -116 -257 -116 -38 0 -39 1 -32 28 4 15 24 112 46 217 31 149 39 212 39
293 0 137 19 168 78 126z m-1158 -49 c67 -117 154 -132 268 -45 l52 40 0 -54
0 -53 -87 -23 c-145 -37 -269 -86 -334 -129 -34 -23 -64 -41 -66 -41 -9 0 8
89 27 145 17 50 98 215 105 215 2 0 18 -25 35 -55z m320 -175 c0 -16 0 -33 1
-37 0 -4 -38 -17 -85 -30 -128 -34 -156 -47 -156 -76 0 -51 75 -98 255 -159
49 -17 93 -34 97 -37 4 -3 -20 -40 -53 -81 -33 -41 -76 -101 -96 -132 -20 -32
-37 -58 -38 -58 -16 0 -151 48 -185 65 -110 55 -209 187 -225 299 -10 61 -1
80 55 121 58 43 127 72 282 119 142 44 148 44 148 6z m490 -20 c10 -5 23 -23
29 -40 10 -30 9 -32 -27 -47 -30 -12 -143 -35 -148 -29 -1 0 14 29 33 64 31
54 38 62 65 62 16 0 38 -4 48 -10z m-120 -7 c0 -4 -15 -31 -32 -61 l-33 -54
-107 4 c-96 3 -109 6 -132 27 -39 36 -33 48 32 62 123 25 272 38 272 22z
m-348 -72 c24 -44 70 -63 165 -69 46 -2 83 -7 83 -11 0 -3 -30 -36 -67 -73
l-66 -67 -95 35 c-142 51 -207 83 -238 115 l-27 28 29 11 c28 11 184 58 194
59 3 1 12 -12 22 -28z m527 -133 c17 -147 15 -198 -6 -198 -30 0 -184 39 -280
71 l-93 31 72 79 c40 44 82 82 93 84 11 2 40 6 65 9 25 3 63 11 85 19 22 7 43
11 47 8 4 -3 11 -50 17 -103z m-1049 -56 c0 -30 57 -139 95 -181 47 -52 138
-107 223 -136 79 -27 68 -32 -85 -42 l-103 -6 0 46 c0 46 -12 62 -24 31 -3 -9
-6 -27 -6 -40 l0 -24 -49 25 c-27 13 -53 30 -58 37 -10 16 -11 318 0 311 4 -2
7 -12 7 -21z m1529 -158 c34 -180 44 -281 38 -379 -10 -151 -39 -211 -115
-233 -69 -21 -902 -13 -902 8 0 4 30 10 68 14 264 26 571 100 712 171 160 80
133 137 -99 207 -52 15 -96 29 -98 31 -1 2 5 37 14 79 l16 75 74 11 c82 11
157 45 218 97 22 19 43 34 46 35 4 0 16 -52 28 -116z m-762 58 c48 -17 134
-40 190 -53 l101 -23 -4 -35 c-14 -106 -13 -104 -42 -97 -80 17 -244 18 -372
2 -74 -10 -145 -20 -157 -23 -32 -7 -29 5 17 74 67 99 150 195 165 189 8 -3
53 -18 102 -34z m-837 -156 c22 -37 22 -38 -20 -226 -34 -151 -27 -256 18
-276 10 -4 136 -8 282 -10 171 -1 276 -6 295 -14 47 -18 372 -32 668 -28 243
3 276 5 310 22 45 22 80 72 98 136 18 69 13 277 -10 409 -11 63 -19 117 -17
119 6 5 64 -151 76 -204 6 -27 10 -100 9 -164 -4 -188 -3 -231 5 -320 4 -51 3
-91 -2 -99 -6 -7 -43 -20 -83 -27 -157 -28 -382 -36 -879 -32 -468 4 -501 6
-600 27 -228 50 -280 106 -266 286 3 44 15 181 26 305 11 124 20 234 21 245 0
11 11 -11 24 -48 13 -38 33 -83 45 -101z m1192 -1 c-13 -60 -20 -75 -34 -75
-20 0 -22 14 -12 98 6 48 9 52 34 52 l27 0 -15 -75z m-1001 -163 c29 -66 95
-129 172 -166 40 -19 80 -37 90 -40 9 -3 17 -12 17 -21 0 -9 9 -34 20 -55 l20
-40 -243 0 c-194 0 -247 3 -263 14 -29 21 -25 123 10 281 l29 130 66 -33 c53
-26 69 -40 82 -70z m857 89 c23 -5 45 -11 48 -14 8 -7 -4 -78 -16 -96 -7 -12
-24 -9 -102 17 -51 17 -147 40 -213 52 -66 12 -122 23 -124 25 -3 4 37 11 94
18 60 8 271 6 313 -2z m-223 -77 c80 -17 213 -59 228 -74 17 -16 -61 -86 -114
-103 -76 -25 -222 -40 -329 -34 -137 8 -134 5 -126 96 7 84 23 153 38 162 9 6
146 -15 303 -47z m339 48 c2 -4 0 -29 -5 -54 -7 -33 -16 -49 -30 -53 -30 -10
-32 -3 -14 59 15 51 35 71 49 48z m-687 -34 c-3 -13 -11 -62 -18 -111 -11 -82
-13 -87 -33 -81 -62 19 -146 80 -186 136 -39 53 -38 65 3 60 17 -1 64 1 102 6
39 5 85 10 104 11 30 1 33 -1 28 -21z m871 -18 c46 -15 94 -38 108 -51 23 -21
23 -23 6 -42 -45 -50 -265 -133 -429 -162 -163 -29 -418 -65 -460 -65 -36 0
-43 4 -52 28 -6 15 -15 36 -20 47 -8 20 -5 20 145 17 235 -5 348 24 415 108
24 30 40 40 60 40 33 0 54 27 65 83 6 38 7 39 42 32 20 -4 74 -19 120 -35z"/>
</g>
</svg>
